<svg version="1.1" xmlns="http://www.w3.org/2000/svg" viewBox="0 0 250 250"><desc>Created with Snap</desc><defs></defs><g transform="matrix(0.0305,0,0,0.0305,7.8145,135.9402)"><rect x="-255.99999923706054" y="-1499.6480361938477" width="8189.951943969726" height="2282.4960845947267" fill="#7acc91" style=""></rect><g transform="matrix(52.128,0,0,52.128,5958.6559,-1192.448)"><g display="none"><rect x="-69.333" y="-18.667" display="inline" fill="#292929" width="473.333" height="236" style=""></rect></g><g display="none"><g display="inline"><g><polygon fill="#292929" points="32,31.952 0,31.952 0,0.048    " style=""></polygon></g><g><polygon fill="#292929" points="23.347,23.325 8.653,23.325 8.653,8.675    " style=""></polygon></g></g><g display="inline"><g><polygon fill="#292929" points="0,0.048 32,0.048 32,31.952    " style=""></polygon></g><g><polygon fill="#292929" points="8.653,8.675 23.347,8.675 23.347,23.325    " style=""></polygon></g></g></g><g display="none"><g display="inline"><rect x="8.675" y="8.675" fill="#292929" stroke="#292929" stroke-miterlimit="10" width="14.65" height="14.65" style=""></rect><rect x="0.5" y="0.326" fill="#292929" stroke="#292929" stroke-miterlimit="10" width="31" height="31.348" style=""></rect><line fill="#292929" stroke="#292929" stroke-miterlimit="10" x1="0.413" y1="0.413" x2="31.587" y2="31.587" style=""></line></g></g><g display="none"><rect x="0.5" y="0.326" display="inline" fill="#292929" stroke="#292929" stroke-miterlimit="10" width="31" height="31.348" style=""></rect><rect x="8.675" y="8.675" display="inline" fill="#292929" stroke="#292929" stroke-miterlimit="10" width="14.65" height="14.65" style=""></rect><line display="inline" fill="#292929" stroke="#292929" stroke-miterlimit="10" x1="0.413" y1="0.413" x2="31.587" y2="31.587" style=""></line></g><g><g><polygon points="9.382,8.675 23.325,8.675 23.325,22.618 32,31.293 32,0 0.707,0   " fill="#292929" style=""></polygon><polygon points="22.618,23.325 8.675,23.325 8.675,9.382 0,0.707 0,32 31.293,32   " fill="#292929" style=""></polygon></g></g><desc>Created with Snap</desc><defs></defs></g><g><g transform="matrix(1.024,0,0,-1.024,0,0)"><path d="M374 296L374 371L609 371L609 0L525 0L525 70Q490 39 440 13Q390 -12 329 -12Q268 -12 217 12Q166 36 129 81Q92 126 71 189Q50 253 50 332Q50 416 71 485Q93 555 134 605Q175 656 234 684Q294 712 370 712Q436 712 486 696Q537 680 582 655L547 576Q505 599 462 614Q419 629 365 629Q318 629 278 610Q238 591 209 554Q180 517 163 462Q147 408 147 338Q147 275 162 225Q177 176 204 141Q231 107 268 89Q306 71 351 71Q379 71 404 77Q429 84 450 94Q471 105 488 117Q506 130 519 143L519 296L374 296ZM1063 526L1036 433Q1017 441 991 441Q963 441 936 429Q910 417 889 393Q869 369 856 331Q844 294 844 243L844 0L754 0L754 520L841 520L841 407Q850 431 865 454Q880 477 900 494Q921 511 948 521Q975 532 1008 532Q1023 532 1037 530Q1052 529 1063 526ZM1574 223L1210 223Q1219 150 1261 109Q1303 68 1372 68Q1417 68 1453 77Q1489 87 1522 102L1543 25Q1507 8 1462 -2Q1417 -12 1361 -12Q1305 -12 1260 6Q1215 25 1183 59Q1152 94 1135 144Q1118 195 1118 260Q1118 318 1135 368Q1152 418 1183 454Q1214 491 1257 511Q1300 532 1353 532Q1409 532 1451 513Q1493 494 1521 461Q1549 428 1563 384Q1577 340 1577 291Q1577 256 1574 223ZM1351 454Q1292 454 1254 414Q1217 374 1209 296L1494 296Q1494 372 1456 413Q1418 454 1351 454ZM2118 223L1754 223Q1763 150 1805 109Q1847 68 1916 68Q1961 68 1997 77Q2033 87 2066 102L2087 25Q2051 8 2006 -2Q1961 -12 1905 -12Q1849 -12 1804 6Q1759 25 1727 59Q1696 94 1679 144Q1662 195 1662 260Q1662 318 1679 368Q1696 418 1727 454Q1758 491 1801 511Q1844 532 1897 532Q1953 532 1995 513Q2037 494 2065 461Q2093 428 2107 384Q2121 340 2121 291Q2121 256 2118 223ZM1895 454Q1836 454 1798 414Q1761 374 1753 296L2038 296Q2038 372 2000 413Q1962 454 1895 454ZM2328 520L2328 433Q2356 475 2399 503Q2443 532 2503 532Q2591 532 2634 479Q2678 426 2678 339L2678 0L2588 0L2588 329Q2588 386 2562 419Q2536 453 2488 453Q2465 453 2443 444Q2421 436 2400 421Q2380 406 2362 386Q2345 366 2331 344L2331 0L2241 0L2241 520L2328 520ZM3083 59L3131 139Q3167 109 3212 90Q3257 71 3317 71Q3389 71 3431 101Q3473 131 3473 182Q3473 203 3467 221Q3461 239 3443 255Q3426 272 3394 288Q3363 305 3313 324Q3259 345 3221 365Q3184 386 3161 410Q3138 435 3128 464Q3118 494 3118 532Q3118 569 3133 602Q3149 635 3179 659Q3210 684 3254 698Q3299 712 3356 712Q3418 712 3467 699Q3516 687 3564 664L3529 583Q3495 603 3449 616Q3404 630 3354 630Q3288 630 3250 604Q3212 579 3212 537Q3212 517 3217 501Q3223 486 3239 471Q3256 457 3285 442Q3315 427 3364 409Q3422 387 3462 364Q3502 341 3526 315Q3550 289 3560 259Q3571 229 3571 193Q3571 144 3552 106Q3533 68 3499 41Q3466 15 3419 1Q3372 -12 3317 -12Q3244 -12 3184 7Q3124 27 3083 59ZM3723 501L3742 665L3811 665L3811 501L3955 501L3955 423L3811 423L3811 172Q3811 143 3817 123Q3824 103 3835 91Q3846 79 3861 73Q3877 68 3894 68Q3919 68 3941 76Q3963 84 3983 95L4008 23Q3988 11 3954 -1Q3920 -12 3883 -12Q3808 -12 3764 37Q3721 86 3721 179L3721 423L3631 423L3631 501L3723 501ZM4484 260Q4484 299 4471 334Q4459 369 4436 395Q4414 421 4383 436Q4353 452 4317 452Q4238 452 4194 400Q4150 348 4150 262Q4150 223 4162 187Q4175 152 4197 125Q4220 99 4250 83Q4281 68 4317 68Q4356 68 4387 82Q4418 96 4439 121Q4461 147 4472 182Q4484 217 4484 260ZM4058 260Q4058 323 4078 373Q4098 424 4132 459Q4167 494 4214 513Q4262 532 4317 532Q4371 532 4418 513Q4466 494 4501 459Q4536 424 4556 374Q4576 324 4576 262Q4576 200 4556 149Q4537 99 4502 63Q4467 27 4419 7Q4372 -12 4317 -12Q4261 -12 4213 8Q4166 28 4131 64Q4097 100 4077 150Q4058 200 4058 260ZM5005 526L4978 433Q4959 441 4933 441Q4905 441 4878 429Q4852 417 4831 393Q4811 369 4798 331Q4786 294 4786 243L4786 0L4696 0L4696 520L4783 520L4783 407Q4792 431 4807 454Q4822 477 4842 494Q4863 511 4890 521Q4917 532 4950 532Q4965 532 4979 530Q4994 529 5005 526ZM5516 223L5152 223Q5161 150 5203 109Q5245 68 5314 68Q5359 68 5395 77Q5431 87 5464 102L5485 25Q5449 8 5404 -2Q5359 -12 5303 -12Q5247 -12 5202 6Q5157 25 5125 59Q5094 94 5077 144Q5060 195 5060 260Q5060 318 5077 368Q5094 418 5125 454Q5156 491 5199 511Q5242 532 5295 532Q5351 532 5393 513Q5435 494 5463 461Q5491 428 5505 384Q5519 340 5519 291Q5519 256 5516 223ZM5293 454Q5234 454 5196 414Q5159 374 5151 296L5436 296Q5436 372 5398 413Q5360 454 5293 454Z" fill="#292929" style=""></path></g></g></g></svg>